<svg width="28" height="28" viewBox="0 0 28 28" fill="none" xmlns="http://www.w3.org/2000/svg">
<path d="M15.8772 22.6815C16.4787 22.6815 17.0556 22.4426 17.481 22.0172C17.9064 21.5919 18.1453 21.0149 18.1453 20.4134C18.1453 19.8118 17.9064 19.2349 17.481 18.8096C17.0556 18.3842 16.4787 18.1452 15.8772 18.1452C15.2756 18.1452 14.6987 18.3842 14.2734 18.8096C13.848 19.2349 13.609 19.8118 13.609 20.4134C13.609 21.0149 13.848 21.5919 14.2734 22.0172C14.6987 22.4426 15.2756 22.6815 15.8772 22.6815ZM7.93867 22.6815C8.54022 22.6815 9.11713 22.4426 9.54249 22.0172C9.96785 21.5919 10.2068 21.0149 10.2068 20.4134C10.2068 19.8118 9.96785 19.2349 9.54249 18.8096C9.11713 18.3842 8.54022 18.1452 7.93867 18.1452C7.33712 18.1452 6.76021 18.3842 6.33485 18.8096C5.90949 19.2349 5.67053 19.8118 5.67053 20.4134C5.67053 21.0149 5.90949 21.5919 6.33485 22.0172C6.76021 22.4426 7.33712 22.6815 7.93867 22.6815ZM22.7247 6.7172C23.0078 6.70807 23.2763 6.58918 23.4733 6.38569C23.6704 6.18219 23.7805 5.91004 23.7805 5.62679C23.7805 5.34353 23.6704 5.07138 23.4733 4.86789C23.2763 4.66439 23.0078 4.54551 22.7247 4.53638H21.4194C20.3965 4.53638 19.5119 5.24631 19.2896 6.24429L17.8686 12.6427C17.6463 13.6407 16.7618 14.3506 15.7388 14.3506H7.21967L5.58434 7.80704H16.1822C16.4627 7.79424 16.7274 7.67383 16.9213 7.47085C17.1153 7.26786 17.2235 6.99793 17.2235 6.7172C17.2235 6.43646 17.1153 6.16653 16.9213 5.96355C16.7274 5.76056 16.4627 5.64015 16.1822 5.62735H5.58434C5.25281 5.62726 4.92562 5.70275 4.62765 5.84808C4.32968 5.99342 4.06876 6.20478 3.86474 6.4661C3.66072 6.72741 3.51896 7.0318 3.45024 7.35613C3.38152 7.68046 3.38765 8.01618 3.46816 8.33779L5.10349 14.8791C5.22138 15.3511 5.49371 15.7701 5.87717 16.0695C6.26062 16.3689 6.73317 16.5315 7.21967 16.5315H15.7388C16.7314 16.5316 17.6943 16.1932 18.4685 15.5721C19.2428 14.9511 19.782 14.0846 19.9973 13.1156L21.4194 6.7172H22.7247Z" fill="white"/>
</svg>
