<svg width="35" height="22" viewBox="0 0 35 22" fill="none" xmlns="http://www.w3.org/2000/svg">
<g clip-path="url(#clip0_3941_3766)">
<path d="M0 2.74463C0 1.22881 1.27118 0 2.83927 0H31.232C32.8 0 34.0712 1.22881 34.0712 2.74463V19.2124C34.0712 20.7282 32.8 21.957 31.232 21.957H2.83927C1.27118 21.957 0 20.7282 0 19.2124V2.74463Z" fill="#FCE0CF"/>
<path d="M20.2857 10.9639C20.2883 10.374 20.0595 9.78323 19.5991 9.33805C19.1376 8.89195 18.5249 8.67095 17.9134 8.6745C17.9105 8.6745 17.9077 8.67432 17.9046 8.67432C16.5767 8.67432 15.5234 9.69225 15.5234 10.9762C15.5234 12.2476 16.5897 13.278 17.9046 13.278C19.2329 13.278 20.2861 12.2599 20.2861 10.9762C20.2861 10.972 20.2857 10.968 20.2857 10.9639Z" fill="#F26E21"/>
<path d="M15.0818 11.9506C14.7259 12.295 14.3974 12.4296 14.0436 12.4369C13.1816 12.4294 12.5479 11.8123 12.5479 10.9325C12.5479 10.4897 12.7214 10.1267 12.9962 9.81666C13.2538 9.58017 13.5858 9.42737 13.9676 9.42737C14.3796 9.42737 14.7003 9.56015 15.0665 9.9143V8.89618C14.7004 8.7192 14.3796 8.63062 13.9676 8.63062C13.3854 8.67084 12.8366 8.8982 12.4156 9.25523C12.2942 9.36077 12.1779 9.47727 12.0793 9.6106C11.7718 9.99591 11.5859 10.4677 11.5859 10.977C11.5859 12.2606 12.6395 13.2344 13.9675 13.2344C13.974 13.2344 13.9804 13.2339 13.9866 13.2338C13.9956 13.2339 14.0044 13.2344 14.0132 13.2344C14.3795 13.2344 14.7003 13.1461 15.1124 12.969L15.0818 11.9506C15.0664 11.9655 15.0972 11.9794 15.0818 11.9936V11.9506Z" fill="#2B2B2B"/>
<path d="M23.2928 9.26498L22.2558 11.7298L21.065 8.80786H20.1035L21.981 13.2789H22.4847L24.4539 8.80786H23.4923L23.2928 9.26498Z" fill="#2B2B2B"/>
<path d="M24.8203 10.7557V13.1463H27.2933H27.3389V12.4378H26.5605H25.7362V11.6412V11.2429H27.2933V10.4901H25.7362V9.56054H27.3389V8.80786H24.8203V10.7557Z" fill="#2B2B2B"/>
<path d="M4.12135 8.80884H2.83887V13.1473H4.12129C4.80809 13.1473 5.31175 12.9701 5.7239 12.6602C6.22756 12.2618 6.54826 11.6422 6.54826 10.9783C6.54832 9.69418 5.58647 8.80884 4.12135 8.80884ZM5.17452 12.0849C4.89973 12.3061 4.53337 12.4388 3.9838 12.4388H3.70901V9.56146H3.93795C4.48752 9.56146 4.85388 9.64998 5.12873 9.91548C5.44924 10.1809 5.63251 10.5796 5.63251 10.9781C5.6783 11.3765 5.49515 11.819 5.17452 12.0849Z" fill="#2B2B2B"/>
<path d="M7.83102 8.80762H6.96094V13.146H7.83102V8.80762Z" fill="#2B2B2B"/>
<path d="M10.0292 10.4906C9.47975 10.3136 9.3422 10.1807 9.3422 9.95945C9.3422 9.69382 9.61698 9.47252 9.98334 9.47252C10.2581 9.47252 10.4871 9.5611 10.7161 9.82673L11.1741 9.25127C10.8076 8.94126 10.3499 8.7644 9.84611 8.7644C9.06741 8.7644 8.42626 9.29566 8.42626 10.0037C8.42626 10.6236 8.7013 10.8892 9.52547 11.1991C9.89183 11.3317 10.0293 11.3761 10.121 11.4646C10.3039 11.553 10.3956 11.7303 10.3956 11.9071C10.3956 12.2613 10.121 12.527 9.70862 12.527C9.29609 12.527 8.93005 12.3057 8.74684 11.9515L8.19727 12.4827C8.6096 13.0582 9.11332 13.3238 9.75447 13.3238C10.6703 13.3238 11.3111 12.7483 11.3111 11.9071C11.3112 11.1547 11.0367 10.8448 10.0292 10.4906Z" fill="#2B2B2B"/>
<path d="M29.8123 11.3311C30.499 11.1985 30.8655 10.7556 30.8655 10.0918C30.8655 9.2951 30.27 8.80786 29.2627 8.80786H27.9346V13.1463H28.8047V11.4197H28.9422L30.1783 13.1463H31.2317L29.8123 11.3311ZM29.0793 10.7998H28.8047V9.47196H29.0793C29.6289 9.47196 29.9496 9.6932 29.9496 10.1362C29.9496 10.5787 29.6289 10.7998 29.0793 10.7998Z" fill="#2B2B2B"/>
</g>
<defs>
<clipPath id="clip0_3941_3766">
<rect width="34.0712" height="21.957" fill="white"/>
</clipPath>
</defs>
</svg>
