<svg width="25" height="25" viewBox="0 0 25 25" fill="none" xmlns="http://www.w3.org/2000/svg">
<path d="M12.3418 0C5.53652 0 0 5.53652 0 12.3418V17.455C0 18.7188 1.10706 19.7468 2.46835 19.7468H3.70253C4.02986 19.7468 4.34377 19.6168 4.57523 19.3854C4.80668 19.1539 4.93671 18.84 4.93671 18.5127V12.1653C4.93671 11.838 4.80668 11.524 4.57523 11.2926C4.34377 11.0611 4.02986 10.9311 3.70253 10.9311H2.5819C3.2681 6.15484 7.37791 2.46835 12.3418 2.46835C17.3056 2.46835 21.4154 6.15484 22.1016 10.9311H20.981C20.6537 10.9311 20.3398 11.0611 20.1083 11.2926C19.8769 11.524 19.7468 11.838 19.7468 12.1653V19.7468C19.7468 21.1081 18.6398 22.2152 17.2785 22.2152H14.8101V20.981H9.87342V24.6835H17.2785C20.0011 24.6835 22.2152 22.4694 22.2152 19.7468C23.5765 19.7468 24.6835 18.7188 24.6835 17.455V12.3418C24.6835 5.53652 19.147 0 12.3418 0Z" fill="white"/>
</svg>
