<svg width="34" height="22" viewBox="0 0 34 22" fill="none" xmlns="http://www.w3.org/2000/svg">
<g clip-path="url(#clip0_3941_3760)">
<path d="M0 2.74463C0 1.22881 1.24294 0 2.77617 0H30.5379C32.0712 0 33.3141 1.22881 33.3141 2.74463V19.2124C33.3141 20.7282 32.0712 21.957 30.5379 21.957H2.77617C1.24294 21.957 0 20.7282 0 19.2124V2.74463Z" fill="#CCEFFF"/>
<path d="M20.3014 17.4544H13.0146V4.50757H20.3014V17.4544Z" fill="#6C6BBD"/>
<path d="M13.481 10.9785C13.481 8.3522 14.7248 6.01275 16.6617 4.50512C15.2453 3.40266 13.4577 2.74464 11.515 2.74464C6.91572 2.74464 3.1875 6.43102 3.1875 10.9785C3.1875 15.526 6.91572 19.2124 11.515 19.2124C13.4577 19.2124 15.2453 18.5544 16.6617 17.4519C14.7248 15.9443 13.481 13.6048 13.481 10.9785Z" fill="#EB001B"/>
<path d="M30.1281 10.9785C30.1281 15.526 26.3999 19.2124 21.8006 19.2124C19.8579 19.2124 18.0703 18.5544 16.6533 17.4519C18.5908 15.9443 19.8346 13.6048 19.8346 10.9785C19.8346 8.3522 18.5908 6.01275 16.6533 4.50512C18.0703 3.40266 19.8579 2.74464 21.8006 2.74464C26.3999 2.74464 30.1281 6.43102 30.1281 10.9785Z" fill="#0099DF"/>
</g>
<defs>
<clipPath id="clip0_3941_3760">
<rect width="33.3141" height="21.957" fill="white"/>
</clipPath>
</defs>
</svg>
