<svg width="26" height="26" viewBox="0 0 26 26" fill="none" xmlns="http://www.w3.org/2000/svg">
<path d="M24.8141 0.493443C24.7387 0.305608 24.5937 0.154082 24.4094 0.0703865C24.2251 -0.013309 24.0157 -0.0227295 23.8246 0.0440847C23.6335 0.110899 23.4756 0.248804 23.3836 0.42911C23.2916 0.609416 23.2727 0.818241 23.3308 1.01214C24.5385 4.48314 22.1413 7.07534 20.3135 8.46374L19.5751 7.40554C19.3268 7.05064 18.7717 6.75554 18.3401 6.75034L14.1957 6.76854C13.6894 6.78383 13.1967 6.93565 12.7696 7.20794L0.557381 15.771C0.273324 15.9709 0.0800462 16.2752 0.0198643 16.6173C-0.0403176 16.9594 0.0375007 17.3114 0.236281 17.5962L5.78598 25.5366C6.20198 26.1281 6.86628 26.0566 7.45908 25.6432L19.6713 17.0788C20.0223 16.8305 20.4279 16.2949 20.5709 15.8854L21.8683 11.7969C22.0113 11.3887 21.9242 10.766 21.6759 10.4111L21.2261 9.76634C23.6805 7.88524 26.2285 4.56114 24.8141 0.493443ZM19.1318 12.6588C18.9068 12.8163 18.653 12.9279 18.3849 12.9873C18.1167 13.0467 17.8395 13.0526 17.5691 13.0048C17.2987 12.957 17.0403 12.8564 16.8088 12.7087C16.5773 12.561 16.3771 12.3691 16.2198 12.144C15.9012 11.6886 15.7763 11.1253 15.8726 10.5779C15.9689 10.0305 16.2784 9.54366 16.7333 9.22424C17.0899 8.9744 17.5156 8.84223 17.951 8.84619C18.3864 8.85015 18.8097 8.99006 19.1617 9.24634C18.8081 9.45954 18.565 9.58434 18.5195 9.60384C18.3583 9.68068 18.2281 9.80997 18.15 9.97054C18.072 10.1311 18.0508 10.3134 18.0899 10.4876C18.129 10.6618 18.2262 10.8175 18.3654 10.9293C18.5046 11.041 18.6777 11.1022 18.8562 11.1027C18.968 11.1027 19.0824 11.0767 19.1903 11.026C19.4425 10.9064 19.7129 10.7647 19.995 10.597C20.0599 10.9871 20.0133 11.3876 19.8606 11.7524C19.7079 12.1171 19.4552 12.4313 19.1318 12.6588Z" fill="white"/>
</svg>
