<svg width="15" height="15" viewBox="0 0 15 15" fill="none" xmlns="http://www.w3.org/2000/svg">
<path d="M6.01245 0.103271C7.56297 0.0553604 9.07376 0.599492 10.2371 1.62573C11.4003 2.65202 12.1284 4.08325 12.2742 5.62769C12.4171 7.1423 11.9873 8.65297 11.074 9.86694L14.2292 13.0212C14.3081 13.1002 14.3711 13.1936 14.4138 13.2966C14.4565 13.3997 14.4782 13.5103 14.4783 13.6218C14.4783 13.7335 14.4566 13.8448 14.4138 13.948C14.3711 14.051 14.3081 14.1445 14.2292 14.2234C14.1503 14.3024 14.0561 14.3652 13.9529 14.408C13.8498 14.4506 13.7392 14.4724 13.6277 14.4724C13.5161 14.4724 13.4056 14.4506 13.3025 14.408C13.1993 14.3652 13.1051 14.3024 13.0261 14.2234L9.87183 11.0681C8.65804 11.9838 7.14656 12.4163 5.63062 12.2742C4.08497 12.1293 2.65276 11.4002 1.62573 10.2361C0.59869 9.07177 0.0541521 7.55935 0.103271 6.00757C0.152401 4.45577 0.790761 2.98057 1.8894 1.88354C2.98708 0.787315 4.46186 0.151253 6.01245 0.103271ZM6.21167 1.82397C5.05093 1.8287 3.93869 2.29227 3.11792 3.11304C2.29741 3.93375 1.83459 5.04529 1.82983 6.20581C1.82511 7.36636 2.27871 8.48194 3.09253 9.30933C3.49988 9.72337 3.98599 10.0525 4.52124 10.2781C5.05645 10.5036 5.6309 10.6214 6.21167 10.6238C6.79242 10.6261 7.36803 10.5139 7.90503 10.2927C8.4421 10.0715 8.92987 9.74543 9.34058 9.33472C9.75124 8.92403 10.0764 8.43619 10.2976 7.89917C10.5188 7.36211 10.632 6.78663 10.6296 6.20581C10.6273 5.62503 10.5095 5.05059 10.2839 4.51538C10.0584 3.98017 9.72918 3.49498 9.31519 3.08765C8.48778 2.27361 7.37236 1.81928 6.21167 1.82397Z" fill="#CACDD8" stroke="#CACDD8" stroke-width="0.2"/>
</svg>
