<svg width="16" height="16" viewBox="0 0 16 16" fill="none" xmlns="http://www.w3.org/2000/svg">
<path d="M6.33594 0.103333C7.97106 0.0528479 9.56421 0.626612 10.791 1.7088C12.0179 2.79117 12.7867 4.30064 12.9404 5.9295C13.0913 7.52844 12.6361 9.12315 11.6709 10.4041L15.0049 13.7371C15.0876 13.8199 15.1534 13.9181 15.1982 14.0262C15.2431 14.1344 15.2666 14.2508 15.2666 14.368C15.2666 14.4851 15.2431 14.6016 15.1982 14.7098C15.1534 14.8179 15.0876 14.9161 15.0049 14.9988C14.9221 15.0816 14.8239 15.1474 14.7158 15.1922C14.6076 15.237 14.4912 15.2596 14.374 15.2596C14.2569 15.2596 14.1405 15.237 14.0322 15.1922C13.9241 15.1474 13.8259 15.0816 13.7432 14.9988L10.4102 11.6649C9.12936 12.6326 7.53304 13.0893 5.93262 12.9393C4.30255 12.7863 2.79206 12.0177 1.70898 10.7899C0.625914 9.56202 0.0518254 7.9673 0.103516 6.33087C0.15533 4.69428 0.829602 3.13824 1.98828 1.98126C3.14591 0.82533 4.70077 0.153931 6.33594 0.103333ZM6.5459 1.909C5.31921 1.91399 4.14377 2.40292 3.27637 3.27032C2.40899 4.13773 1.92003 5.31319 1.91504 6.53986C1.91011 7.76646 2.38974 8.94574 3.25 9.82013C3.6804 10.2575 4.19331 10.6052 4.75879 10.8436C5.32445 11.0819 5.93207 11.2063 6.5459 11.2088C7.15954 11.2113 7.76753 11.0918 8.33496 10.8582C8.90252 10.6245 9.4185 10.2805 9.85254 9.8465C10.2866 9.41245 10.6305 8.8965 10.8643 8.32892C11.0979 7.76149 11.2173 7.1535 11.2148 6.53986C11.2123 5.92603 11.088 5.31841 10.8496 4.75275C10.6113 4.18724 10.2636 3.67437 9.82617 3.24396C8.95176 2.38368 7.77253 1.90404 6.5459 1.909Z" fill="black" stroke="black" stroke-width="0.2"/>
</svg>
