<svg width="34" height="22" viewBox="0 0 34 22" fill="none" xmlns="http://www.w3.org/2000/svg">
<g clip-path="url(#clip0_3941_3743)">
<path d="M0 2.74463C0 1.22881 1.24294 0 2.77617 0H30.5379C32.0712 0 33.3141 1.22881 33.3141 2.74463V19.2124C33.3141 20.7282 32.0712 21.957 30.5379 21.957H2.77617C1.24294 21.957 0 20.7282 0 19.2124V2.74463Z" fill="#D8E3F3"/>
<path d="M28.6713 6.88281H26.9261C26.3985 6.88281 25.9926 7.04332 25.7491 7.56496L22.4209 15.0685H24.775C24.775 15.0685 25.1808 14.0654 25.262 13.8246C25.5055 13.8246 27.819 13.8246 28.1437 13.8246C28.2249 14.1055 28.4278 15.0284 28.4278 15.0284H30.5384L28.6713 6.88281ZM25.9114 12.1393C26.1143 11.6578 26.8043 9.85215 26.8043 9.85215C26.8043 9.89227 27.0073 9.37063 27.0884 9.08975L27.2508 9.81202C27.2508 9.81202 27.6973 11.7782 27.7784 12.1795H25.9114V12.1393Z" fill="#3362AB"/>
<path d="M22.5833 12.3821C22.5833 14.0674 21.041 15.1909 18.6463 15.1909C17.6316 15.1909 16.6575 14.9903 16.1299 14.7495L16.4546 12.9037L16.7387 13.0241C17.4693 13.3451 17.9563 13.4655 18.8492 13.4655C19.4986 13.4655 20.1886 13.2247 20.1886 12.6629C20.1886 12.3018 19.9045 12.0611 19.0116 11.6598C18.1593 11.2585 17.0228 10.6165 17.0228 9.45285C17.0228 7.84781 18.6057 6.7644 20.838 6.7644C21.6904 6.7644 22.4209 6.92491 22.8674 7.12554L22.5427 8.89109L22.3803 8.73058C21.9745 8.57008 21.4468 8.40958 20.6757 8.40958C19.8233 8.4497 19.4175 8.81084 19.4175 9.13185C19.4175 9.49298 19.9045 9.77386 20.6757 10.135C21.9745 10.7369 22.5833 11.419 22.5833 12.3821Z" fill="#3362AB"/>
<path d="M2.77637 6.96446L2.81695 6.80396H6.30747C6.79451 6.80396 7.1598 6.96446 7.28156 7.4861L8.05272 11.0975C7.28156 9.1714 5.49572 7.60648 2.77637 6.96446Z" fill="#F9B50B"/>
<path d="M12.9639 6.88436L9.43281 15.03H7.03816L5.00879 8.20853C6.46993 9.13143 7.68755 10.576 8.13401 11.5791L8.37754 12.4218L10.5693 6.84424H12.9639V6.88436Z" fill="#3362AB"/>
<path d="M13.8971 6.84424H16.1294L14.7089 15.03H12.4766L13.8971 6.84424Z" fill="#3362AB"/>
</g>
<defs>
<clipPath id="clip0_3941_3743">
<rect width="33.3141" height="21.957" fill="white"/>
</clipPath>
</defs>
</svg>
